# xmcd
#
# Track frame offsets: 
#        180
#        32318
#        59818
#        91199
#        119148
#        143114
#        163697
#        192377
#        219722
#        243618
#        275980
#        301530
#
# Disc length: 4321 seconds
#
# Revision: 0
# Processed by: cddbd v1.5.2PL0 Copyright (c) Steve Scherf et al.
# Submitted via: ExactAudioCopyFreeDBPlugin 1.0
#
DISCID=b610df0c
DTITLE=Hoàng Oanh - Hạ buồn
DYEAR=1900
DGENRE=Vietnamese
TTITLE0=Chuyện chiếc cầu đã gãy
TTITLE1=Chuyến đò vĩ tuyến
TTITLE2=Hai vì sao lạc
TTITLE3=Trăng tàn trên phố
TTITLE4=Hạ buồn
TTITLE5=Khúc ca ngày mùa
TTITLE6=Chuyến đò không em
TTITLE7=Bài hương ca vô tận
TTITLE8=Gió biển
TTITLE9=Tình lúa duyên trăng
TTITLE10=Hoa xuân
TTITLE11=Giọt mưa thu
EXTD=
EXTT0=
EXTT1=
EXTT2=
EXTT3=
EXTT4=
EXTT5=
EXTT6=
EXTT7=
EXTT8=
EXTT9=
EXTT10=
EXTT11=
PLAYORDER=
